<svg width="76" height="71" viewBox="0 0 76 71" fill="none" xmlns="http://www.w3.org/2000/svg">
<path d="M69.23 0H6.77C3.06 0 0.09 2.43 0 5.58V51.32C0 54.45 3 57 6.77 57H36V68H18.5C18.1022 68 17.7206 68.158 17.4393 68.4393C17.158 68.7206 17 69.1022 17 69.5C17 69.8978 17.158 70.2794 17.4393 70.5607C17.7206 70.842 18.1022 71 18.5 71H57.5C57.8978 71 58.2794 70.842 58.5607 70.5607C58.842 70.2794 59 69.8978 59 69.5C59 69.1022 58.842 68.7206 58.5607 68.4393C58.2794 68.158 57.8978 68 57.5 68H39V57H69.23C73 57 76 54.45 76 51.32V5.68C76 2.55 73 0 69.23 0ZM73 51.32C73 52.77 71.27 54 69.23 54H6.77C4.77 54 3 52.77 3 51.32V5.62C3 4.18 4.73 3 6.77 3H69.23C71.23 3 73 4.23 73 5.68V51.32Z" fill="#00C152"/>
<path d="M43.2709 19.63C42.9189 19.4545 42.512 19.4243 42.1379 19.5459C41.7638 19.6674 41.4524 19.9311 41.2709 20.28L33.1909 36C33.1009 36.1754 33.0464 36.3667 33.0304 36.5631C33.0143 36.7595 33.0372 36.9571 33.0975 37.1447C33.1579 37.3322 33.2546 37.5061 33.3821 37.6563C33.5097 37.8065 33.6656 37.9301 33.8409 38.02C34.0162 38.11 34.2075 38.1645 34.4039 38.1806C34.6003 38.1966 34.7979 38.1738 34.9855 38.1134C35.1731 38.053 35.3469 37.9563 35.4971 37.8288C35.6473 37.7012 35.7709 37.5454 35.8609 37.37L43.9209 21.62C44.0933 21.2691 44.1218 20.8646 44.0004 20.4929C43.879 20.1212 43.6172 19.8116 43.2709 19.63Z" fill="#00C152"/>
<path d="M52.8591 19.0801C52.5748 18.8151 52.1987 18.6709 51.8101 18.6777C51.4215 18.6846 51.0507 18.842 50.7759 19.1168C50.5011 19.3917 50.3436 19.7624 50.3368 20.151C50.3299 20.5396 50.4742 20.9157 50.7391 21.2001L58.2191 28.6701L50.7391 36.1401C50.5918 36.2774 50.4736 36.443 50.3916 36.627C50.3096 36.811 50.2655 37.0096 50.262 37.211C50.2584 37.4124 50.2954 37.6125 50.3709 37.7993C50.4463 37.986 50.5586 38.1557 50.7011 38.2982C50.8435 38.4406 51.0132 38.5529 51.1999 38.6283C51.3867 38.7038 51.5868 38.7408 51.7882 38.7373C51.9896 38.7337 52.1882 38.6896 52.3722 38.6076C52.5562 38.5257 52.7218 38.4074 52.8591 38.2601L61.3991 29.7301C61.68 29.4488 61.8378 29.0676 61.8378 28.6701C61.8378 28.2726 61.68 27.8913 61.3991 27.6101L52.8591 19.0801Z" fill="#00C152"/>
<path d="M26.3995 19.08C26.1182 18.7991 25.737 18.6414 25.3395 18.6414C24.942 18.6414 24.5607 18.7991 24.2795 19.08L15.7395 27.62C15.4586 27.9013 15.3008 28.2825 15.3008 28.68C15.3008 29.0775 15.4586 29.4588 15.7395 29.74L24.2795 38.28C24.5638 38.545 24.9399 38.6892 25.3285 38.6824C25.7171 38.6755 26.0879 38.5181 26.3627 38.2433C26.6375 37.9685 26.795 37.5977 26.8018 37.2091C26.8087 36.8205 26.6644 36.4444 26.3995 36.16L18.9195 28.69L26.3995 21.2C26.6804 20.9188 26.8381 20.5375 26.8381 20.14C26.8381 19.7425 26.6804 19.3613 26.3995 19.08Z" fill="#00C152"/>
</svg>
