<svg width="76" height="76" viewBox="0 0 76 76" fill="none" xmlns="http://www.w3.org/2000/svg">
<path d="M38 40C34.023 40.004 30.2101 41.5706 27.3979 44.356C24.5857 47.1414 23.0041 50.918 23 54.8571C23 55.1602 23.1216 55.4509 23.338 55.6653C23.5543 55.8796 23.8478 56 24.1538 56H51.8462C52.1522 56 52.4457 55.8796 52.662 55.6653C52.8784 55.4509 53 55.1602 53 54.8571C52.9959 50.918 51.4143 47.1414 48.6021 44.356C45.7899 41.5706 41.977 40.004 38 40ZM25.3615 53.7143C25.6428 50.5855 27.0964 47.6743 29.4362 45.554C31.776 43.4336 34.8325 42.2576 38.0038 42.2576C41.1752 42.2576 44.2317 43.4336 46.5715 45.554C48.9113 47.6743 50.3649 50.5855 50.6462 53.7143H25.3615Z" fill="#3A5DEF"/>
<path d="M37.5 36C39.1811 36 40.8245 35.5015 42.2223 34.5675C43.6202 33.6335 44.7096 32.306 45.353 30.7528C45.9963 29.1996 46.1646 27.4906 45.8367 25.8417C45.5087 24.1929 44.6992 22.6783 43.5104 21.4896C42.3217 20.3008 40.8071 19.4913 39.1583 19.1633C37.5094 18.8354 35.8004 19.0037 34.2472 19.647C32.694 20.2904 31.3665 21.3798 30.4325 22.7777C29.4985 24.1755 29 25.8189 29 27.5C29.002 29.7537 29.8981 31.9146 31.4918 33.5082C33.0854 35.1019 35.2463 35.998 37.5 36ZM37.5 21.2174C38.7426 21.2174 39.9573 21.5859 40.9904 22.2762C42.0236 22.9665 42.8289 23.9478 43.3044 25.0958C43.7799 26.2438 43.9043 27.507 43.6619 28.7257C43.4195 29.9444 42.8211 31.0638 41.9425 31.9425C41.0638 32.8211 39.9444 33.4195 38.7257 33.6619C37.507 33.9043 36.2437 33.7799 35.0957 33.3044C33.9478 32.8289 32.9665 32.0236 32.2762 30.9904C31.5859 29.9573 31.2174 28.7426 31.2174 27.5C31.2193 25.8344 31.8819 24.2375 33.0597 23.0597C34.2375 21.8819 35.8343 21.2194 37.5 21.2174Z" fill="#3A5DEF"/>
<path d="M73.8557 36.4898H70.0031C69.6195 28.4784 66.1835 20.9083 60.3869 15.304C54.5903 9.69961 46.8637 6.47723 38.7629 6.28571V2.13265C38.7629 1.83225 38.6423 1.54416 38.4277 1.33175C38.2131 1.11933 37.9221 1 37.6186 1C37.3151 1 37.024 1.11933 36.8094 1.33175C36.5948 1.54416 36.4742 1.83225 36.4742 2.13265V6.32347C28.5166 6.70791 20.9882 10.0096 15.3546 15.5857C9.72099 21.1618 6.38532 28.6133 5.99691 36.4898H2.14433C1.84083 36.4898 1.54977 36.6091 1.33517 36.8215C1.12056 37.034 1 37.3221 1 37.6224C1 37.9228 1.12056 38.2109 1.33517 38.4234C1.54977 38.6358 1.84083 38.7551 2.14433 38.7551H5.95876C6.15226 46.7732 9.40785 54.421 15.07 60.1585C20.7321 65.8959 28.3802 69.2969 36.4742 69.6765V73.8673C36.4742 74.1677 36.5948 74.4558 36.8094 74.6683C37.024 74.8807 37.3151 75 37.6186 75C37.9221 75 38.2131 74.8807 38.4277 74.6683C38.6423 74.4558 38.7629 74.1677 38.7629 73.8673V69.7143C46.9975 69.5224 54.8411 66.1991 60.6654 60.4342C66.4898 54.6693 69.8474 46.9057 70.0412 38.7551H73.8557C74.1592 38.7551 74.4502 38.6358 74.6648 38.4234C74.8794 38.2109 75 37.9228 75 37.6224C75 37.3221 74.8794 37.034 74.6648 36.8215C74.4502 36.6091 74.1592 36.4898 73.8557 36.4898ZM38.7629 67.449V64.051C38.7629 63.7506 38.6423 63.4625 38.4277 63.2501C38.2131 63.0377 37.9221 62.9184 37.6186 62.9184C37.3151 62.9184 37.024 63.0377 36.8094 63.2501C36.5948 63.4625 36.4742 63.7506 36.4742 64.051V67.4112C28.9872 67.0331 21.9204 63.8715 16.687 58.5585C11.4537 53.2455 8.43952 46.1729 8.24742 38.7551H12.0619C12.3654 38.7551 12.6564 38.6358 12.871 38.4234C13.0856 38.2109 13.2062 37.9228 13.2062 37.6224C13.2062 37.3221 13.0856 37.034 12.871 36.8215C12.6564 36.6091 12.3654 36.4898 12.0619 36.4898H8.28557C8.67298 29.2143 11.7672 22.3382 16.972 17.1866C22.1768 12.0349 29.1238 8.97224 36.4742 8.58878V11.949C36.4742 12.2494 36.5948 12.5375 36.8094 12.7499C37.024 12.9623 37.3151 13.0816 37.6186 13.0816C37.9221 13.0816 38.2131 12.9623 38.4277 12.7499C38.6423 12.5375 38.7629 12.2494 38.7629 11.949V8.55102C46.2572 8.74116 53.4027 11.7245 58.7704 16.9045C64.1382 22.0845 67.3324 29.0792 67.7144 36.4898H63.9381C63.6346 36.4898 63.3436 36.6091 63.129 36.8215C62.9144 37.034 62.7938 37.3221 62.7938 37.6224C62.7938 37.9228 62.9144 38.2109 63.129 38.4234C63.3436 38.6358 63.6346 38.7551 63.9381 38.7551H67.7526C67.5594 46.3049 64.4431 53.4928 59.0478 58.833C53.6525 64.1733 46.3906 67.2578 38.7629 67.449Z" fill="#3A5DEF"/>
</svg>
