<svg width="80" height="63" viewBox="0 0 80 63" fill="none" xmlns="http://www.w3.org/2000/svg">
<path d="M78.8928 50.1688H64.1858V11.8312C64.1858 8.85523 63.0098 6.00118 60.9163 3.89688C58.8229 1.79257 55.9836 0.610385 53.0231 0.610385H12.5579C12.344 0.610385 12.13 0.554281 11.9068 0.53558C10.3594 0.437193 8.80826 0.656744 7.34806 1.18084C5.88787 1.70493 4.5492 2.52258 3.41375 3.58389C2.36024 4.56459 1.51976 5.75359 0.945078 7.07628C0.370393 8.39897 0.0739032 9.82679 0.074219 11.2701C0.074219 11.6421 0.221229 11.9989 0.482908 12.2619C0.744586 12.5249 1.0995 12.6727 1.46957 12.6727H19.5347V50.8327C19.4882 53.7203 20.5392 56.517 22.4735 58.6525C24.4078 60.7879 27.0795 62.1012 29.944 62.3247H29.9998H30.2231H69.1626C70.5981 62.3557 72.0255 62.1021 73.3635 61.5785C74.7014 61.0548 75.9236 60.2713 76.9603 59.2727C77.9969 58.2741 78.8276 57.08 79.405 55.7586C79.9824 54.4372 80.2952 53.0144 80.3254 51.5714C80.3254 51.384 80.2882 51.1985 80.2157 51.0259C80.1433 50.8532 80.0372 50.6969 79.9036 50.5662C79.7701 50.4354 79.6118 50.3329 79.4382 50.2647C79.2646 50.1964 79.0792 50.1638 78.8928 50.1688ZM2.99515 9.86753C3.30408 8.24139 4.12222 6.75717 5.33003 5.63168C6.72097 4.35341 8.49387 3.57414 10.3719 3.41558C10.48 3.42844 10.5893 3.42844 10.6975 3.41558H12.4649C14.1093 3.69152 15.6351 4.452 16.849 5.60062C18.0629 6.74925 18.9102 8.2343 19.2835 9.86753H2.99515ZM30.1114 59.5195C27.9577 59.3391 25.9534 58.3402 24.5068 56.7262C23.0601 55.1123 22.28 53.0047 22.3254 50.8327V12.0088C22.3314 10.3955 22.0037 8.7985 21.3632 7.3192C20.7226 5.8399 19.7832 4.51058 18.6045 3.41558H53.0231C55.2435 3.41558 57.373 4.30222 58.943 5.88045C60.5131 7.45868 61.3951 9.59921 61.3951 11.8312V50.1688H40.3905C40.0204 50.1688 39.6655 50.3166 39.4038 50.5796C39.1422 50.8427 38.9952 51.1994 38.9952 51.5714C38.9888 52.6265 38.7667 53.669 38.3426 54.6341C37.9186 55.5993 37.3016 56.4665 36.53 57.1818C35.6751 57.9906 34.6647 58.6151 33.561 59.0171C32.4572 59.4191 31.2833 59.5901 30.1114 59.5195ZM69.1812 59.5195H38.1393L38.4277 59.2577C40.2072 57.6064 41.3612 55.3855 41.6928 52.974H77.3672C76.9664 54.8519 75.929 56.5314 74.4324 57.7254C72.9358 58.9194 71.073 59.5535 69.1626 59.5195H69.1812Z" fill="#F2518E"/>
</svg>
