<svg width="75" height="68" viewBox="0 0 75 68" fill="none" xmlns="http://www.w3.org/2000/svg">
<path d="M73.5577 46.9296H66.3462V16.7606C66.3462 16.3795 66.1942 16.0141 65.9237 15.7447C65.6532 15.4753 65.2864 15.3239 64.9038 15.3239H53.8462V1.43662C53.8462 1.0556 53.6942 0.690194 53.4237 0.420776C53.1532 0.151358 52.7864 0 52.4038 0H22.5962C22.2136 0 21.8468 0.151358 21.5763 0.420776C21.3058 0.690194 21.1538 1.0556 21.1538 1.43662V15.3239H10.0962C9.71363 15.3239 9.34677 15.4753 9.07629 15.7447C8.8058 16.0141 8.65385 16.3795 8.65385 16.7606V46.9296H1.44231C1.05978 46.9296 0.692927 47.0809 0.422442 47.3504C0.151957 47.6198 0 47.9852 0 48.3662V66.5634C0 66.9444 0.151957 67.3098 0.422442 67.5792C0.692927 67.8486 1.05978 68 1.44231 68H19.7115C20.0941 68 20.4609 67.8486 20.7314 67.5792C21.0019 67.3098 21.1538 66.9444 21.1538 66.5634V48.3662C21.1538 47.9852 21.0019 47.6198 20.7314 47.3504C20.4609 47.0809 20.0941 46.9296 19.7115 46.9296H11.5385V18.1972H21.1538V31.1268C21.1538 31.5078 21.3058 31.8732 21.5763 32.1426C21.8468 32.412 22.2136 32.5634 22.5962 32.5634H36.5385V46.9296H28.3654C27.9829 46.9296 27.616 47.0809 27.3455 47.3504C27.075 47.6198 26.9231 47.9852 26.9231 48.3662V66.5634C26.9231 66.9444 27.075 67.3098 27.3455 67.5792C27.616 67.8486 27.9829 68 28.3654 68H46.6346C47.0171 68 47.384 67.8486 47.6545 67.5792C47.925 67.3098 48.0769 66.9444 48.0769 66.5634V48.3662C48.0769 47.9852 47.925 47.6198 47.6545 47.3504C47.384 47.0809 47.0171 46.9296 46.6346 46.9296H39.4231V32.5634H52.4038C52.7864 32.5634 53.1532 32.412 53.4237 32.1426C53.6942 31.8732 53.8462 31.5078 53.8462 31.1268V18.1972H63.4615V46.9296H55.2885C54.9059 46.9296 54.5391 47.0809 54.2686 47.3504C53.9981 47.6198 53.8462 47.9852 53.8462 48.3662V66.5634C53.8462 66.9444 53.9981 67.3098 54.2686 67.5792C54.5391 67.8486 54.9059 68 55.2885 68H73.5577C73.9402 68 74.3071 67.8486 74.5776 67.5792C74.848 67.3098 75 66.9444 75 66.5634V48.3662C75 47.9852 74.848 47.6198 74.5776 47.3504C74.3071 47.0809 73.9402 46.9296 73.5577 46.9296ZM18.2692 65.1268H2.88462V49.8028H18.2692V65.1268ZM45.1923 65.1268H29.8077V49.8028H45.1923V65.1268ZM50.9615 29.6901H24.0385V2.87324H50.9615V29.6901ZM72.1154 65.1268H56.7308V49.8028H72.1154V65.1268Z" fill="#B73AC1"/>
</svg>
